<svg xmlns="http://www.w3.org/2000/svg"  viewBox="0 0 50 50" width="25px" height="25px"><path d="M42.723 13.607C42.904 13.794 43 14.038 43 14.299l0 24.605c0 .529-.435.905-.901.905-.169 0-.341-.049-.499-.158-1.606-1.107-4.477-2.65-7.991-2.65-3.172 0-5.508.996-6.94 1.861-.516.312-1.169-.057-1.169-.66l0-24.247c0-.273.11-.529.304-.72C27.038 12.021 29.682 10 33.609 10 38.795 10 41.833 12.685 42.723 13.607zM24.5 13.955l0 24.25c0 .603-.652.972-1.168.66-1.434-.866-3.774-1.864-6.94-1.864-3.515 0-6.385 1.544-7.991 2.65-.158.109-.33.158-.499.158C7.435 39.809 7 39.433 7 38.904l0-24.605c0-.26.096-.505.277-.692C8.167 12.685 11.205 10 16.391 10c3.925 0 6.57 2.022 7.804 3.236C24.39 13.427 24.5 13.683 24.5 13.955z"/></svg>